<svg width="16" height="17" viewBox="0 0 16 17" fill="none" xmlns="http://www.w3.org/2000/svg">
<path d="M7.33337 12.0634H8.66671V8.06335H7.33337V12.0634ZM8.00004 6.73002C8.18893 6.73002 8.34737 6.66602 8.47537 6.53802C8.60337 6.41002 8.66715 6.2518 8.66671 6.06335C8.66671 5.87447 8.60271 5.71624 8.47471 5.58869C8.34671 5.46113 8.18849 5.39713 8.00004 5.39669C7.81115 5.39669 7.65293 5.46069 7.52537 5.58869C7.39782 5.71669 7.33382 5.87491 7.33337 6.06335C7.33337 6.25224 7.39737 6.41069 7.52537 6.53869C7.65337 6.66669 7.8116 6.73047 8.00004 6.73002ZM8.00004 15.3967C7.07782 15.3967 6.21115 15.2216 5.40004 14.8714C4.58893 14.5211 3.88337 14.0462 3.28337 13.4467C2.68337 12.8467 2.20849 12.1411 1.85871 11.33C1.50893 10.5189 1.33382 9.65224 1.33337 8.73002C1.33337 7.8078 1.50849 6.94113 1.85871 6.13002C2.20893 5.31891 2.68382 4.61335 3.28337 4.01335C3.88337 3.41335 4.58893 2.93847 5.40004 2.58869C6.21115 2.23891 7.07782 2.0638 8.00004 2.06335C8.92226 2.06335 9.78893 2.23847 10.6 2.58869C11.4112 2.93891 12.1167 3.4138 12.7167 4.01335C13.3167 4.61335 13.7918 5.31891 14.142 6.13002C14.4923 6.94113 14.6672 7.8078 14.6667 8.73002C14.6667 9.65224 14.4916 10.5189 14.1414 11.33C13.7912 12.1411 13.3163 12.8467 12.7167 13.4467C12.1167 14.0467 11.4112 14.5218 10.6 14.872C9.78893 15.2222 8.92226 15.3971 8.00004 15.3967ZM8.00004 14.0634C9.48893 14.0634 10.75 13.5467 11.7834 12.5134C12.8167 11.48 13.3334 10.2189 13.3334 8.73002C13.3334 7.24113 12.8167 5.98002 11.7834 4.94669C10.75 3.91335 9.48893 3.39669 8.00004 3.39669C6.51115 3.39669 5.25004 3.91335 4.21671 4.94669C3.18337 5.98002 2.66671 7.24113 2.66671 8.73002C2.66671 10.2189 3.18337 11.48 4.21671 12.5134C5.25004 13.5467 6.51115 14.0634 8.00004 14.0634Z" fill="black"/>
</svg>
